<svg width="178" height="134" viewBox="0 0 178 134" fill="none" xmlns="http://www.w3.org/2000/svg">
<path d="M113.739 133.54C113.664 133.54 113.588 133.54 113.513 133.535C105.778 133.432 99.4526 128.037 98.1369 120.41L83.5779 36.0637L71.3217 95.4414C69.6582 103.52 62.9942 108.952 54.742 108.952C54.7325 108.952 54.7325 108.952 54.7325 108.952C46.4803 108.957 39.8166 103.529 38.1433 95.4509L34.0924 75.8872C33.7636 74.2893 32.335 73.1287 30.6996 73.1287C26.9775 73.1287 23.9604 70.1116 23.9604 66.3896C23.9604 62.6675 26.9775 59.6505 30.6996 59.6505C38.6793 59.6505 45.6533 65.3274 47.2888 73.1426L51.3397 92.7157C51.8378 95.1217 53.6801 95.4789 54.7325 95.4789C55.7853 95.4789 57.6276 95.1217 58.1257 92.7157L71.6415 27.2241C72.8446 21.3543 77.8918 17.4446 83.879 17.4162C89.8755 17.5149 94.7724 21.7067 95.7873 27.6141L111.408 118.116C111.634 119.39 112.395 120.048 113.692 120.067C115.008 120.005 115.769 119.455 116.023 118.187L137.744 9.87344C138.938 3.98027 144.248 0.03752 149.953 0C155.959 0.07504 160.875 4.253 161.909 10.1651L176.919 95.1031C177.567 98.764 175.124 102.26 171.458 102.909C167.849 103.548 164.305 101.118 163.647 97.4436L149.728 18.6569L129.238 120.833C127.734 128.342 121.38 133.54 113.739 133.54ZM15.6058 66.7222C15.6058 71.0317 12.1123 74.5251 7.8029 74.5251C3.49345 74.5251 0 71.0317 0 66.7222C0 62.4128 3.49345 58.9193 7.8029 58.9193C12.1123 58.9193 15.6058 62.4128 15.6058 66.7222Z" fill="#FF4545"/>
<path d="M7.8029 74.5252C12.1123 74.5252 15.6058 71.0318 15.6058 66.7223C15.6058 62.4129 12.1123 58.9194 7.8029 58.9194C3.49345 58.9194 0 62.4129 0 66.7223C0 71.0318 3.49345 74.5252 7.8029 74.5252Z" fill="#FF4545"/>
</svg>
